<svg width="27" height="27" viewBox="0 0 27 27" fill="none" xmlns="http://www.w3.org/2000/svg">
<path d="M5.75065 16.0835H21.2507V13.5002H5.75065V16.0835ZM5.75065 12.2085H21.2507V9.62516H5.75065V12.2085ZM5.75065 8.3335H21.2507V5.75016H5.75065V8.3335ZM3.16732 21.2502C2.4569 21.2502 1.84874 20.9972 1.34284 20.4913C0.836936 19.9854 0.583984 19.3772 0.583984 18.6668V3.16683C0.583984 2.45641 0.836936 1.84825 1.34284 1.34235C1.84874 0.836448 2.4569 0.583496 3.16732 0.583496H23.834C24.5444 0.583496 25.1526 0.836448 25.6585 1.34235C26.1644 1.84825 26.4173 2.45641 26.4173 3.16683V26.4168L21.2507 21.2502H3.16732Z" fill="white"/>
</svg>
