<svg width="162" height="50" viewBox="0 0 162 50" fill="none" xmlns="http://www.w3.org/2000/svg">
<path d="M0.98 14.08H7.28V36.88C7 36.96 6.6 37.06 6.08 37.18C5.56 37.3 5 37.36 4.4 37.36C3.2 37.36 2.32 37.14 1.76 36.7C1.24 36.22 0.98 35.46 0.98 34.42V14.08ZM7.28 20.56H0.98V0.579997C1.26 0.499998 1.66 0.419999 2.18 0.34C2.74 0.219999 3.32 0.159999 3.92 0.159999C5.08 0.159999 5.92 0.379998 6.44 0.819997C7 1.22 7.28 1.96 7.28 3.04V20.56ZM24.2 14.08H30.56V36.88C30.24 36.96 29.82 37.06 29.3 37.18C28.78 37.3 28.22 37.36 27.62 37.36C26.42 37.36 25.54 37.14 24.98 36.7C24.46 36.22 24.2 35.46 24.2 34.42V14.08ZM30.56 20.56H24.2V0.579997C24.48 0.499998 24.9 0.419999 25.46 0.34C26.02 0.219999 26.58 0.159999 27.14 0.159999C28.3 0.159999 29.16 0.379998 29.72 0.819997C30.28 1.26 30.56 2.02 30.56 3.1V20.56ZM27.68 21.16H4.34V16H27.68V21.16ZM50.2508 33.04C51.6908 33.04 52.9108 32.9 53.9108 32.62C54.9508 32.3 55.7108 32 56.1908 31.72V23.98L49.5308 24.64C47.6908 24.8 46.2908 25.22 45.3308 25.9C44.4108 26.54 43.9508 27.5 43.9508 28.78C43.9508 30.1 44.4708 31.14 45.5108 31.9C46.5508 32.66 48.1308 33.04 50.2508 33.04ZM50.0708 8.08C53.7908 8.08 56.7308 8.9 58.8908 10.54C61.0908 12.14 62.1908 14.68 62.1908 18.16V32.14C62.1908 33.06 61.9908 33.78 61.5908 34.3C61.1908 34.82 60.6308 35.28 59.9108 35.68C58.8708 36.28 57.5108 36.78 55.8308 37.18C54.1908 37.62 52.3308 37.84 50.2508 37.84C46.3708 37.84 43.3308 37.1 41.1308 35.62C38.9708 34.1 37.8908 31.88 37.8908 28.96C37.8908 26.32 38.7508 24.3 40.4708 22.9C42.1908 21.46 44.6308 20.6 47.7908 20.32L56.1908 19.48V18.1C56.1908 16.3 55.6108 15 54.4508 14.2C53.2908 13.4 51.7108 13 49.7108 13C48.1108 13 46.5508 13.22 45.0308 13.66C43.5508 14.1 42.2308 14.6 41.0708 15.16C40.7108 14.84 40.3908 14.46 40.1108 14.02C39.8308 13.54 39.6908 13.04 39.6908 12.52C39.6908 11.28 40.3708 10.34 41.7308 9.7C42.8508 9.18 44.1308 8.78 45.5708 8.5C47.0508 8.22 48.5508 8.08 50.0708 8.08ZM95.4767 18.58V24.52H89.2967V18.82C89.2967 16.82 88.7367 15.36 87.6167 14.44C86.4967 13.52 84.9967 13.06 83.1167 13.06C81.7167 13.06 80.4567 13.24 79.3367 13.6C78.2167 13.96 77.2567 14.36 76.4567 14.8V24.52H70.2767V14.68C70.2767 13.76 70.4567 13.02 70.8167 12.46C71.2167 11.86 71.8367 11.3 72.6767 10.78C73.7967 10.1 75.2567 9.48 77.0567 8.92C78.8567 8.36 80.8767 8.08 83.1167 8.08C86.9967 8.08 90.0167 8.96 92.1767 10.72C94.3767 12.44 95.4767 15.06 95.4767 18.58ZM70.2767 21.4H76.4567V36.88C76.1767 36.96 75.7767 37.06 75.2567 37.18C74.7767 37.3 74.2367 37.36 73.6367 37.36C72.5167 37.36 71.6767 37.14 71.1167 36.7C70.5567 36.26 70.2767 35.54 70.2767 34.54V21.4ZM89.2967 21.4H95.4767V36.88C95.1967 36.96 94.7967 37.06 94.2767 37.18C93.7567 37.3 93.2167 37.36 92.6567 37.36C91.4967 37.36 90.6367 37.14 90.0767 36.7C89.5567 36.26 89.2967 35.54 89.2967 34.54V21.4ZM115.434 36.04C113.074 36.04 110.894 35.6 108.894 34.72C106.934 33.8 105.354 32.32 104.154 30.28C102.954 28.2 102.354 25.48 102.354 22.12C102.354 19.04 102.954 16.46 104.154 14.38C105.354 12.3 107.014 10.74 109.134 9.7C111.294 8.62 113.774 8.08 116.574 8.08C118.534 8.08 120.334 8.34 121.974 8.86C123.614 9.34 124.954 9.92 125.994 10.6C126.634 11.04 127.154 11.54 127.554 12.1C127.954 12.66 128.154 13.34 128.154 14.14V32.74H122.094V14.5C121.494 14.14 120.754 13.82 119.874 13.54C118.994 13.22 117.934 13.06 116.694 13.06C114.254 13.06 112.274 13.82 110.754 15.34C109.274 16.82 108.534 19.06 108.534 22.06C108.534 25.42 109.274 27.78 110.754 29.14C112.234 30.5 114.074 31.18 116.274 31.18C117.914 31.18 119.234 30.9 120.234 30.34C121.234 29.78 122.054 29.18 122.694 28.54L122.994 33.7C122.314 34.3 121.334 34.84 120.054 35.32C118.774 35.8 117.234 36.04 115.434 36.04ZM122.154 37.48V31.42H128.154V37.78C128.154 40.46 127.554 42.62 126.354 44.26C125.154 45.94 123.514 47.16 121.434 47.92C119.394 48.68 117.094 49.06 114.534 49.06C112.494 49.06 110.734 48.84 109.254 48.4C107.774 48 106.714 47.62 106.074 47.26C104.794 46.5 104.154 45.52 104.154 44.32C104.154 43.64 104.294 43.06 104.574 42.58C104.894 42.14 105.254 41.8 105.654 41.56C106.574 42.2 107.794 42.76 109.314 43.24C110.834 43.76 112.454 44.02 114.174 44.02C116.734 44.02 118.694 43.5 120.054 42.46C121.454 41.42 122.154 39.76 122.154 37.48ZM136.37 26.5V21.4H142.55V26.32C142.55 28.64 143.15 30.32 144.35 31.36C145.59 32.36 147.29 32.86 149.45 32.86C150.89 32.86 152.11 32.72 153.11 32.44C154.11 32.12 154.87 31.8 155.39 31.48V21.4H161.57V31.72C161.57 32.6 161.43 33.32 161.15 33.88C160.87 34.44 160.31 34.98 159.47 35.5C158.47 36.1 157.11 36.64 155.39 37.12C153.67 37.6 151.67 37.84 149.39 37.84C146.71 37.84 144.39 37.44 142.43 36.64C140.47 35.84 138.97 34.6 137.93 32.92C136.89 31.24 136.37 29.1 136.37 26.5ZM161.57 24.4H155.39V9.04C155.67 8.96 156.07 8.86 156.59 8.74C157.11 8.62 157.65 8.56 158.21 8.56C159.37 8.56 160.21 8.78 160.73 9.22C161.29 9.62 161.57 10.36 161.57 11.44V24.4ZM142.55 24.4H136.37V9.04C136.65 8.96 137.05 8.86 137.57 8.74C138.09 8.62 138.65 8.56 139.25 8.56C140.37 8.56 141.19 8.78 141.71 9.22C142.27 9.62 142.55 10.36 142.55 11.44V24.4Z" fill="white"/>
</svg>
