<svg width="108" height="34" viewBox="0 0 108 34" fill="none" xmlns="http://www.w3.org/2000/svg">
<path d="M0.32 9.72H4.52V24.92C4.33333 24.9733 4.06667 25.04 3.72 25.12C3.37333 25.2 3 25.24 2.6 25.24C1.8 25.24 1.21333 25.0933 0.84 24.8C0.493333 24.48 0.32 23.9733 0.32 23.28V9.72ZM4.52 14.04H0.32V0.719998C0.506667 0.666665 0.773334 0.613333 1.12 0.56C1.49333 0.479999 1.88 0.439999 2.28 0.439999C3.05333 0.439999 3.61333 0.586665 3.96 0.879998C4.33333 1.14666 4.52 1.64 4.52 2.36V14.04ZM15.8 9.72H20.04V24.92C19.8267 24.9733 19.5467 25.04 19.2 25.12C18.8533 25.2 18.48 25.24 18.08 25.24C17.28 25.24 16.6933 25.0933 16.32 24.8C15.9733 24.48 15.8 23.9733 15.8 23.28V9.72ZM20.04 14.04H15.8V0.719998C15.9867 0.666665 16.2667 0.613333 16.64 0.56C17.0133 0.479999 17.3867 0.439999 17.76 0.439999C18.5333 0.439999 19.1067 0.586665 19.48 0.879998C19.8533 1.17333 20.04 1.68 20.04 2.4V14.04ZM18.12 14.44H2.56V11H18.12V14.44ZM33.1672 22.36C34.1272 22.36 34.9405 22.2667 35.6072 22.08C36.3005 21.8667 36.8072 21.6667 37.1272 21.48V16.32L32.6872 16.76C31.4605 16.8667 30.5272 17.1467 29.8872 17.6C29.2739 18.0267 28.9672 18.6667 28.9672 19.52C28.9672 20.4 29.3139 21.0933 30.0072 21.6C30.7005 22.1067 31.7539 22.36 33.1672 22.36ZM33.0472 5.72C35.5272 5.72 37.4872 6.26667 38.9272 7.36C40.3939 8.42667 41.1272 10.12 41.1272 12.44V21.76C41.1272 22.3733 40.9939 22.8533 40.7272 23.2C40.4605 23.5467 40.0872 23.8533 39.6072 24.12C38.9139 24.52 38.0072 24.8533 36.8872 25.12C35.7939 25.4133 34.5539 25.56 33.1672 25.56C30.5805 25.56 28.5539 25.0667 27.0872 24.08C25.6472 23.0667 24.9272 21.5867 24.9272 19.64C24.9272 17.88 25.5005 16.5333 26.6472 15.6C27.7939 14.64 29.4205 14.0667 31.5272 13.88L37.1272 13.32V12.4C37.1272 11.2 36.7405 10.3333 35.9672 9.8C35.1939 9.26667 34.1405 9 32.8072 9C31.7405 9 30.7005 9.14667 29.6872 9.44C28.7005 9.73333 27.8205 10.0667 27.0472 10.44C26.8072 10.2267 26.5939 9.97333 26.4072 9.68C26.2205 9.36 26.1272 9.02667 26.1272 8.68C26.1272 7.85333 26.5805 7.22667 27.4872 6.8C28.2339 6.45333 29.0872 6.18667 30.0472 6C31.0339 5.81333 32.0339 5.72 33.0472 5.72ZM63.3178 12.72V16.68H59.1978V12.88C59.1978 11.5467 58.8245 10.5733 58.0778 9.96C57.3311 9.34667 56.3311 9.04 55.0778 9.04C54.1445 9.04 53.3045 9.16 52.5578 9.4C51.8111 9.64 51.1711 9.90667 50.6378 10.2V16.68H46.5178V10.12C46.5178 9.50667 46.6378 9.01333 46.8778 8.64C47.1445 8.24 47.5578 7.86667 48.1178 7.52C48.8645 7.06667 49.8378 6.65333 51.0378 6.28C52.2378 5.90667 53.5845 5.72 55.0778 5.72C57.6645 5.72 59.6778 6.30667 61.1178 7.48C62.5845 8.62667 63.3178 10.3733 63.3178 12.72ZM46.5178 14.6H50.6378V24.92C50.4511 24.9733 50.1845 25.04 49.8378 25.12C49.5178 25.2 49.1578 25.24 48.7578 25.24C48.0111 25.24 47.4511 25.0933 47.0778 24.8C46.7045 24.5067 46.5178 24.0267 46.5178 23.36V14.6ZM59.1978 14.6H63.3178V24.92C63.1311 24.9733 62.8645 25.04 62.5178 25.12C62.1711 25.2 61.8111 25.24 61.4378 25.24C60.6645 25.24 60.0911 25.0933 59.7178 24.8C59.3711 24.5067 59.1978 24.0267 59.1978 23.36V14.6ZM76.6225 24.36C75.0492 24.36 73.5958 24.0667 72.2625 23.48C70.9558 22.8667 69.9025 21.88 69.1025 20.52C68.3025 19.1333 67.9025 17.32 67.9025 15.08C67.9025 13.0267 68.3025 11.3067 69.1025 9.92C69.9025 8.53333 71.0092 7.49333 72.4225 6.8C73.8625 6.08 75.5158 5.72 77.3825 5.72C78.6892 5.72 79.8892 5.89333 80.9825 6.24C82.0758 6.56 82.9692 6.94667 83.6625 7.4C84.0892 7.69333 84.4358 8.02667 84.7025 8.4C84.9692 8.77333 85.1025 9.22667 85.1025 9.76V22.16H81.0625V10C80.6625 9.76 80.1692 9.54667 79.5825 9.36C78.9958 9.14667 78.2892 9.04 77.4625 9.04C75.8358 9.04 74.5158 9.54667 73.5025 10.56C72.5158 11.5467 72.0225 13.04 72.0225 15.04C72.0225 17.28 72.5158 18.8533 73.5025 19.76C74.4892 20.6667 75.7158 21.12 77.1825 21.12C78.2758 21.12 79.1558 20.9333 79.8225 20.56C80.4892 20.1867 81.0358 19.7867 81.4625 19.36L81.6625 22.8C81.2092 23.2 80.5558 23.56 79.7025 23.88C78.8492 24.2 77.8225 24.36 76.6225 24.36ZM81.1025 25.32V21.28H85.1025V25.52C85.1025 27.3067 84.7025 28.7467 83.9025 29.84C83.1025 30.96 82.0092 31.7733 80.6225 32.28C79.2625 32.7867 77.7292 33.04 76.0225 33.04C74.6625 33.04 73.4892 32.8933 72.5025 32.6C71.5158 32.3333 70.8092 32.08 70.3825 31.84C69.5292 31.3333 69.1025 30.68 69.1025 29.88C69.1025 29.4267 69.1958 29.04 69.3825 28.72C69.5958 28.4267 69.8358 28.2 70.1025 28.04C70.7158 28.4667 71.5292 28.84 72.5425 29.16C73.5558 29.5067 74.6358 29.68 75.7825 29.68C77.4892 29.68 78.7958 29.3333 79.7025 28.64C80.6358 27.9467 81.1025 26.84 81.1025 25.32ZM90.5803 18V14.6H94.7003V17.88C94.7003 19.4267 95.1003 20.5467 95.9003 21.24C96.727 21.9067 97.8603 22.24 99.3003 22.24C100.26 22.24 101.074 22.1467 101.74 21.96C102.407 21.7467 102.914 21.5333 103.26 21.32V14.6H107.38V21.48C107.38 22.0667 107.287 22.5467 107.1 22.92C106.914 23.2933 106.54 23.6533 105.98 24C105.314 24.4 104.407 24.76 103.26 25.08C102.114 25.4 100.78 25.56 99.2603 25.56C97.4736 25.56 95.927 25.2933 94.6203 24.76C93.3136 24.2267 92.3136 23.4 91.6203 22.28C90.927 21.16 90.5803 19.7333 90.5803 18ZM107.38 16.6H103.26V6.36C103.447 6.30667 103.714 6.24 104.06 6.16C104.407 6.08 104.767 6.04 105.14 6.04C105.914 6.04 106.474 6.18667 106.82 6.48C107.194 6.74667 107.38 7.24 107.38 7.96V16.6ZM94.7003 16.6H90.5803V6.36C90.767 6.30667 91.0336 6.24 91.3803 6.16C91.727 6.08 92.1003 6.04 92.5003 6.04C93.247 6.04 93.7936 6.18667 94.1403 6.48C94.5136 6.74667 94.7003 7.24 94.7003 7.96V16.6Z" fill="white"/>
</svg>
