<svg width="27" height="25" viewBox="0 0 27 25" fill="none" xmlns="http://www.w3.org/2000/svg">
<path d="M13.5007 24.1249L11.6277 22.4458C9.45343 20.4867 7.65586 18.7968 6.23503 17.376C4.81419 15.9551 3.68398 14.6796 2.8444 13.5494C2.00482 12.4192 1.41819 11.3805 1.08451 10.4333C0.750825 9.48605 0.583984 8.5173 0.583984 7.52702C0.583984 5.50341 1.26211 3.81348 2.61836 2.45723C3.97461 1.10098 5.66454 0.422852 7.68815 0.422852C8.8076 0.422852 9.87322 0.659657 10.885 1.13327C11.8968 1.60688 12.7687 2.27424 13.5007 3.13535C14.2326 2.27424 15.1045 1.60688 16.1163 1.13327C17.1281 0.659657 18.1937 0.422852 19.3132 0.422852C21.3368 0.422852 23.0267 1.10098 24.3829 2.45723C25.7392 3.81348 26.4173 5.50341 26.4173 7.52702C26.4173 8.5173 26.2505 9.48605 25.9168 10.4333C25.5831 11.3805 24.9965 12.4192 24.1569 13.5494C23.3173 14.6796 22.1871 15.9551 20.7663 17.376C19.3454 18.7968 17.5479 20.4867 15.3736 22.4458L13.5007 24.1249Z" fill="white"/>
</svg>
